Results
version=1
nRows=4
nColumns=205
inDegrees=yes
endheader
time	/jointset/ground_pelvis/pelvis_tilt/value	/jointset/ground_pelvis/pelvis_tilt/speed	/jointset/ground_pelvis/pelvis_list/value	/jointset/ground_pelvis/pelvis_list/speed	/jointset/ground_pelvis/pelvis_rotation/value	/jointset/ground_pelvis/pelvis_rotation/speed	/jointset/ground_pelvis/pelvis_tx/value	/jointset/ground_pelvis/pelvis_tx/speed	/jointset/ground_pelvis/pelvis_ty/value	/jointset/ground_pelvis/pelvis_ty/speed	/jointset/ground_pelvis/pelvis_tz/value	/jointset/ground_pelvis/pelvis_tz/speed	/jointset/hip_r/hip_flexion_r/value	/jointset/hip_r/hip_flexion_r/speed	/jointset/hip_r/hip_adduction_r/value	/jointset/hip_r/hip_adduction_r/speed	/jointset/hip_r/hip_rotation_r/value	/jointset/hip_r/hip_rotation_r/speed	/jointset/walker_knee_r/knee_angle_r/value	/jointset/walker_knee_r/knee_angle_r/speed	/jointset/patellofemoral_r/knee_angle_r_beta/value	/jointset/patellofemoral_r/knee_angle_r_beta/speed	/jointset/ankle_r/ankle_angle_r/value	/jointset/ankle_r/ankle_angle_r/speed	/jointset/subtalar_r/subtalar_angle_r/value	/jointset/subtalar_r/subtalar_angle_r/speed	/jointset/mtp_r/mtp_angle_r/value	/jointset/mtp_r/mtp_angle_r/speed	/jointset/hip_l/hip_flexion_l/value	/jointset/hip_l/hip_flexion_l/speed	/jointset/hip_l/hip_adduction_l/value	/jointset/hip_l/hip_adduction_l/speed	/jointset/hip_l/hip_rotation_l/value	/jointset/hip_l/hip_rotation_l/speed	/jointset/walker_knee_l/knee_angle_l/value	/jointset/walker_knee_l/knee_angle_l/speed	/jointset/patellofemoral_l/knee_angle_l_beta/value	/jointset/patellofemoral_l/knee_angle_l_beta/speed	/jointset/ankle_l/ankle_angle_l/value	/jointset/ankle_l/ankle_angle_l/speed	/jointset/subtalar_l/subtalar_angle_l/value	/jointset/subtalar_l/subtalar_angle_l/speed	/jointset/mtp_l/mtp_angle_l/value	/jointset/mtp_l/mtp_angle_l/speed	/jointset/back/lumbar_extension/value	/jointset/back/lumbar_extension/speed	/jointset/back/lumbar_bending/value	/jointset/back/lumbar_bending/speed	/jointset/back/lumbar_rotation/value	/jointset/back/lumbar_rotation/speed	/jointset/acromial_r/arm_flex_r/value	/jointset/acromial_r/arm_flex_r/speed	/jointset/acromial_r/arm_add_r/value	/jointset/acromial_r/arm_add_r/speed	/jointset/acromial_r/arm_rot_r/value	/jointset/acromial_r/arm_rot_r/speed	/jointset/elbow_r/elbow_flex_r/value	/jointset/elbow_r/elbow_flex_r/speed	/jointset/radioulnar_r/pro_sup_r/value	/jointset/radioulnar_r/pro_sup_r/speed	/jointset/radius_hand_r/wrist_flex_r/value	/jointset/radius_hand_r/wrist_flex_r/speed	/jointset/radius_hand_r/wrist_dev_r/value	/jointset/radius_hand_r/wrist_dev_r/speed	/jointset/acromial_l/arm_flex_l/value	/jointset/acromial_l/arm_flex_l/speed	/jointset/acromial_l/arm_add_l/value	/jointset/acromial_l/arm_add_l/speed	/jointset/acromial_l/arm_rot_l/value	/jointset/acromial_l/arm_rot_l/speed	/jointset/elbow_l/elbow_flex_l/value	/jointset/elbow_l/elbow_flex_l/speed	/jointset/radioulnar_l/pro_sup_l/value	/jointset/radioulnar_l/pro_sup_l/speed	/jointset/radius_hand_l/wrist_flex_l/value	/jointset/radius_hand_l/wrist_flex_l/speed	/jointset/radius_hand_l/wrist_dev_l/value	/jointset/radius_hand_l/wrist_dev_l/speed	/forceset/addbrev_r/activation	/forceset/addlong_r/activation	/forceset/addlong_r/fiber_length	/forceset/addmagDist_r/activation	/forceset/addmagIsch_r/activation	/forceset/addmagIsch_r/fiber_length	/forceset/addmagMid_r/activation	/forceset/addmagProx_r/activation	/forceset/bflh_r/activation	/forceset/bflh_r/fiber_length	/forceset/bfsh_r/activation	/forceset/edl_r/activation	/forceset/edl_r/fiber_length	/forceset/ehl_r/activation	/forceset/ehl_r/fiber_length	/forceset/fdl_r/activation	/forceset/fdl_r/fiber_length	/forceset/fhl_r/activation	/forceset/fhl_r/fiber_length	/forceset/gaslat_r/activation	/forceset/gaslat_r/fiber_length	/forceset/gasmed_r/activation	/forceset/gasmed_r/fiber_length	/forceset/glmax1_r/activation	/forceset/glmax2_r/activation	/forceset/glmax3_r/activation	/forceset/glmed1_r/activation	/forceset/glmed2_r/activation	/forceset/glmed3_r/activation	/forceset/glmin1_r/activation	/forceset/glmin2_r/activation	/forceset/glmin3_r/activation	/forceset/glmin3_r/fiber_length	/forceset/grac_r/activation	/forceset/iliacus_r/activation	/forceset/perbrev_r/activation	/forceset/perbrev_r/fiber_length	/forceset/perlong_r/activation	/forceset/perlong_r/fiber_length	/forceset/piri_r/activation	/forceset/piri_r/fiber_length	/forceset/psoas_r/activation	/forceset/recfem_r/activation	/forceset/recfem_r/fiber_length	/forceset/sart_r/activation	/forceset/semimem_r/activation	/forceset/semimem_r/fiber_length	/forceset/semiten_r/activation	/forceset/semiten_r/fiber_length	/forceset/soleus_r/activation	/forceset/soleus_r/fiber_length	/forceset/tfl_r/activation	/forceset/tfl_r/fiber_length	/forceset/tibant_r/activation	/forceset/tibant_r/fiber_length	/forceset/tibpost_r/activation	/forceset/tibpost_r/fiber_length	/forceset/vasint_r/activation	/forceset/vasint_r/fiber_length	/forceset/vaslat_r/activation	/forceset/vaslat_r/fiber_length	/forceset/vasmed_r/activation	/forceset/vasmed_r/fiber_length	/forceset/addbrev_l/activation	/forceset/addlong_l/activation	/forceset/addlong_l/fiber_length	/forceset/addmagDist_l/activation	/forceset/addmagIsch_l/activation	/forceset/addmagIsch_l/fiber_length	/forceset/addmagMid_l/activation	/forceset/addmagProx_l/activation	/forceset/bflh_l/activation	/forceset/bflh_l/fiber_length	/forceset/bfsh_l/activation	/forceset/edl_l/activation	/forceset/edl_l/fiber_length	/forceset/ehl_l/activation	/forceset/ehl_l/fiber_length	/forceset/fdl_l/activation	/forceset/fdl_l/fiber_length	/forceset/fhl_l/activation	/forceset/fhl_l/fiber_length	/forceset/gaslat_l/activation	/forceset/gaslat_l/fiber_length	/forceset/gasmed_l/activation	/forceset/gasmed_l/fiber_length	/forceset/glmax1_l/activation	/forceset/glmax2_l/activation	/forceset/glmax3_l/activation	/forceset/glmed1_l/activation	/forceset/glmed2_l/activation	/forceset/glmed3_l/activation	/forceset/glmin1_l/activation	/forceset/glmin2_l/activation	/forceset/glmin3_l/activation	/forceset/glmin3_l/fiber_length	/forceset/grac_l/activation	/forceset/iliacus_l/activation	/forceset/perbrev_l/activation	/forceset/perbrev_l/fiber_length	/forceset/perlong_l/activation	/forceset/perlong_l/fiber_length	/forceset/piri_l/activation	/forceset/piri_l/fiber_length	/forceset/psoas_l/activation	/forceset/recfem_l/activation	/forceset/recfem_l/fiber_length	/forceset/sart_l/activation	/forceset/semimem_l/activation	/forceset/semimem_l/fiber_length	/forceset/semiten_l/activation	/forceset/semiten_l/fiber_length	/forceset/soleus_l/activation	/forceset/soleus_l/fiber_length	/forceset/tfl_l/activation	/forceset/tfl_l/fiber_length	/forceset/tibant_l/activation	/forceset/tibant_l/fiber_length	/forceset/tibpost_l/activation	/forceset/tibpost_l/fiber_length	/forceset/vasint_l/activation	/forceset/vasint_l/fiber_length	/forceset/vaslat_l/activation	/forceset/vaslat_l/fiber_length	/forceset/vasmed_l/activation	/forceset/vasmed_l/fiber_length
      0.00000000	      0.00000000	      0.00000000	      0.00000000	      0.00000000	      0.00000000	      0.00000000	      0.00000000	      0.00000000	      0.94000000	      0.00000000	      0.00000000	      0.00000000	     35.92400000	      0.00000000	     -0.00000015	      0.00000000	      0.00000000	      0.00000000	     45.85999969	      0.00000000	      0.80040799	      0.00000000	     -0.00000009	      0.00000000	      0.00000000	      0.00000000	      0.00000000	      0.00000000	      0.00000034	      0.00000000	     -0.00000015	      0.00000000	      0.00000000	      0.00000000	      0.00433890	      0.00000000	      0.00007573	      0.00000000	     -0.00000009	      0.00000000	      0.00000000	      0.00000000	      0.00000000	      0.00000000	      0.00000000	      0.00000000	      0.00000000	      0.00000000	      0.00000000	      0.00000000	      0.00000000	      0.00000000	     -0.00000008	      0.00000000	      0.00000000	      0.00000000	      0.00433917	      0.00000000	      0.00433914	      0.00000000	      0.00000000	      0.00000000	      0.00000011	      0.00000000	      0.00000000	      0.00000000	     -0.00000008	      0.00000000	      0.00000000	      0.00000000	      0.00433917	      0.00000000	      0.00433914	      0.00000000	      0.00000000	      0.00000000	      0.00000011	      0.00000000	      0.01000000	      0.01000000	      0.08606625	      0.01000000	      0.01000000	      0.15706898	      0.01000000	      0.01000000	      0.01000000	      0.09933458	      0.01000000	      0.01000000	      0.06923260	      0.01000000	      0.07815643	      0.01000000	      0.04540190	      0.01000000	      0.05137227	      0.01000000	      0.05592038	      0.01000000	      0.04739468	      0.01000000	      0.01000000	      0.01000000	      0.01000000	      0.01000000	      0.01000000	      0.01000000	      0.01000000	      0.01000000	      0.04400713	      0.01000000	      0.01000000	      0.01000000	      0.04853813	      0.01000000	      0.05409332	      0.01000000	      0.02983470	      0.01000000	      0.01000000	      0.07447293	      0.01000000	      0.01000000	      0.06543223	      0.01000000	      0.21048177	      0.01000000	      0.04795166	      0.01000000	      0.08263309	      0.01000000	      0.06619698	      0.01000000	      0.03920036	      0.01000000	      0.11297439	      0.01000000	      0.11114968	      0.01000000	      0.10984235	      0.01000000	      0.01000000	      0.11276150	      0.01000000	      0.01000000	      0.12520855	      0.01000000	      0.01000000	      0.01000000	      0.08967182	      0.01000000	      0.01000000	      0.06923260	      0.01000000	      0.07815643	      0.01000000	      0.04540190	      0.01000000	      0.05137227	      0.01000000	      0.07016042	      0.01000000	      0.05691211	      0.01000000	      0.01000000	      0.01000000	      0.01000000	      0.01000000	      0.01000000	      0.01000000	      0.01000000	      0.01000000	      0.03799590	      0.01000000	      0.01000000	      0.01000000	      0.04853813	      0.01000000	      0.05409332	      0.01000000	      0.02336894	      0.01000000	      0.01000000	      0.06467900	      0.01000000	      0.01000000	      0.06548682	      0.01000000	      0.21098988	      0.01000000	      0.04795166	      0.01000000	      0.09710230	      0.01000000	      0.06619698	      0.01000000	      0.03920036	      0.01000000	      0.07971338	      0.01000000	      0.07868837	      0.01000000	      0.08036582
      0.00100000	      0.00374417	      7.46482142	     -0.00025801	     -0.51710513	      0.00030027	      0.60974652	      0.00000067	      0.00132482	      0.94000221	      0.00438145	     -0.00000068	     -0.00137285	     35.91831242	    -11.34698008	     -0.00017960	     -0.36269646	     -0.00146728	     -2.93624123	     45.85590695	     -8.17312471	      0.80033656	     -0.14264794	     -0.01924433	    -38.31090203	     -0.00582058	    -11.56570021	     -0.03103669	    -61.78862910	     -0.00548184	    -10.92103422	     -0.00013252	     -0.26748220	     -0.00012890	     -0.24838843	     -0.00011568	     -8.85788701	     -0.00000202	     -0.15459929	     -0.03683621	    -73.27076535	     -0.01033679	    -20.53096998	     -0.05819007	   -115.75583834	     -0.00428997	     -8.55311070	      0.00031612	      0.63296745	     -0.00028942	     -0.58808547	      0.00080448	      1.60408773	     -0.00006123	     -0.12185596	     -0.00001849	     -0.03685588	      0.00403011	     -0.61629598	      0.00438170	      0.08485738	      0.00003142	      0.06273259	      0.00017864	      0.35595123	      0.00081595	      1.62693913	      0.00010355	      0.20655209	     -0.00000029	     -0.00057986	      0.00402390	     -0.62868278	      0.00436551	      0.05256937	      0.00002052	      0.04101109	      0.00003852	      0.07666639	      0.00987125	      0.00987125	      0.08606748	      0.00987125	      0.00987125	      0.15706742	      0.00987125	      0.00987125	      0.00987125	      0.09933409	      0.00987125	      0.00987125	      0.06923326	      0.00987125	      0.07815751	      0.00987125	      0.04540205	      0.00987125	      0.05137227	      0.00987125	      0.05591949	      0.00987125	      0.04739394	      0.00987125	      0.00987125	      0.00987125	      0.00987125	      0.00987125	      0.00987125	      0.00987125	      0.00987125	      0.00987125	      0.04400691	      0.00987125	      0.00987125	      0.00987125	      0.04853740	      0.00987125	      0.05409287	      0.00987125	      0.02983451	      0.00987125	      0.00987125	      0.07447307	      0.00987125	      0.00987125	      0.06543204	      0.00987125	      0.21048088	      0.00987125	      0.04795041	      0.00987125	      0.08263360	      0.00987125	      0.06619891	      0.00987125	      0.03920027	      0.00987125	      0.11297371	      0.00987125	      0.11114906	      0.00987125	      0.10984168	      0.00987125	      0.00987125	      0.11276303	      0.00987125	      0.00987125	      0.12520749	      0.00987125	      0.00987125	      0.00987125	      0.08967150	      0.00987125	      0.00987125	      0.06923389	      0.00987125	      0.07815852	      0.00987125	      0.04540217	      0.00987125	      0.05137225	      0.00987125	      0.07015761	      0.00987125	      0.05691002	      0.00987125	      0.00987125	      0.00987125	      0.00987125	      0.00987125	      0.00987125	      0.00987125	      0.00987125	      0.00987125	      0.03799555	      0.00987125	      0.00987125	      0.00987125	      0.04853679	      0.00987125	      0.05409248	      0.00987125	      0.02336882	      0.00987125	      0.00987125	      0.06467896	      0.00987125	      0.00987125	      0.06548667	      0.00987125	      0.21098932	      0.00987125	      0.04794927	      0.00987125	      0.09710241	      0.00987125	      0.06620074	      0.00987125	      0.03920018	      0.00987125	      0.07971262	      0.00987125	      0.07868774	      0.00987125	      0.08036507
      0.00200264	      0.01491168	     14.77928270	     -0.00104723	     -1.06544955	      0.00125369	      1.31232277	      0.00000265	      0.00262081	      0.94000866	      0.00841811	     -0.00000279	     -0.00285734	     35.90130907	    -22.53714172	     -0.00073403	     -0.74605699	     -0.00589842	     -5.91059000	     45.84364114	    -16.27656455	      0.80012248	     -0.28407964	     -0.07615150	    -74.74015369	     -0.02291131	    -22.33384621	     -0.12282461	   -120.56000035	     -0.02178281	    -21.52640435	     -0.00055411	     -0.58682017	     -0.00048067	     -0.44464317	     -0.01325625	    -17.24690682	     -0.00023137	     -0.30101531	     -0.14544379	   -142.37312034	     -0.04061420	    -39.48853563	     -0.22980352	   -225.00233073	     -0.01708563	    -16.93388248	      0.00127940	      1.29696424	     -0.00121016	     -1.26866899	      0.00320442	      3.17616024	     -0.00024423	     -0.24337943	     -0.00007355	     -0.07274548	      0.00310702	     -1.22319915	      0.00450876	      0.16830798	      0.00012727	      0.12989024	      0.00071251	      0.70863699	      0.00325017	      3.22169278	      0.00041331	      0.41119956	     -0.00000092	     -0.00046734	      0.00308223	     -1.24786438	      0.00444411	      0.10394406	      0.00008378	      0.08657943	      0.00015332	      0.15196857	      0.00974216	      0.00974216	      0.08607396	      0.00974216	      0.00974216	      0.15705889	      0.00974216	      0.00974216	      0.00974216	      0.09933104	      0.00974216	      0.00974216	      0.06923754	      0.00974216	      0.07816436	      0.00974216	      0.04540303	      0.00974216	      0.05137228	      0.00974216	      0.05591367	      0.00974216	      0.04738906	      0.00974216	      0.00974216	      0.00974216	      0.00974216	      0.00974216	      0.00974216	      0.00974216	      0.00974216	      0.00974216	      0.04400587	      0.00974216	      0.00974216	      0.00974216	      0.04853302	      0.00974216	      0.05408996	      0.00974216	      0.02983337	      0.00974216	      0.00974216	      0.07447398	      0.00974216	      0.00974216	      0.06543078	      0.00974216	      0.21047643	      0.00974216	      0.04794247	      0.00974216	      0.08263684	      0.00974216	      0.06621190	      0.00974216	      0.03919973	      0.00974216	      0.11296991	      0.00974216	      0.11114554	      0.00974216	      0.10983810	      0.00974216	      0.00974216	      0.11277098	      0.00974216	      0.00974216	      0.12520182	      0.00974216	      0.00974216	      0.00974216	      0.08966952	      0.00974216	      0.00974216	      0.06924250	      0.00974216	      0.07817248	      0.00974216	      0.04540390	      0.00974216	      0.05137212	      0.00974216	      0.07013972	      0.00974216	      0.05689631	      0.00974216	      0.00974216	      0.00974216	      0.00974216	      0.00974216	      0.00974216	      0.00974216	      0.00974216	      0.00974216	      0.03799366	      0.00974216	      0.00974216	      0.00974216	      0.04852872	      0.00974216	      0.05408709	      0.00974216	      0.02336810	      0.00974216	      0.00974216	      0.06467874	      0.00974216	      0.00974216	      0.06548571	      0.00974216	      0.21098650	      0.00974216	      0.04793353	      0.00974216	      0.09710316	      0.00974216	      0.06623127	      0.00974216	      0.03919903	      0.00974216	      0.07970827	      0.00974216	      0.07868409	      0.00974216	      0.08036090
      0.00281202	      0.02921282	     20.53686751	     -0.00210320	     -1.55082582	      0.00257941	      1.97980767	      0.00000518	      0.00364803	      0.94001668	      0.01134199	     -0.00000563	     -0.00417510	     35.87946236	    -31.42553532	     -0.00146727	     -1.06771021	     -0.01166769	     -8.35207808	     45.82784717	    -22.73880044	      0.79984682	     -0.39686694	     -0.14774254	   -101.76562471	     -0.04417615	    -30.05169656	     -0.23831448	   -164.18025706	     -0.04256062	    -29.76675383	     -0.00115626	     -0.91180724	     -0.00089004	     -0.55914280	     -0.02977993	    -23.50278906	     -0.00051976	     -0.41020105	     -0.28157490	   -193.22458234	     -0.07814727	    -52.97449611	     -0.44497256	   -305.44801508	     -0.03347127	    -23.52962161	      0.00256098	      1.87704249	     -0.00249311	     -1.91761242	      0.00627752	      4.41245080	     -0.00048138	     -0.34286204	     -0.00014379	     -0.10065084	      0.00192145	     -1.70520262	      0.00467183	      0.23444941	      0.00025698	      0.19197881	      0.00140103	      0.99267333	      0.00636755	      4.47635779	      0.00081292	      0.57624703	     -0.00000087	      0.00078852	      0.00187268	     -1.73979246	      0.00454456	      0.14406044	      0.00017134	      0.13113670	      0.00030033	      0.21103923	      0.00963795	      0.00963795	      0.08608432	      0.00963795	      0.00963795	      0.15704506	      0.00963795	      0.00963795	      0.00963795	      0.09932560	      0.00963795	      0.00963795	      0.06924569	      0.00963795	      0.07817733	      0.00963795	      0.04540487	      0.00963795	      0.05137230	      0.00963795	      0.05590279	      0.00963795	      0.04737984	      0.00963795	      0.00963795	      0.00963795	      0.00963795	      0.00963795	      0.00963795	      0.00963795	      0.00963795	      0.00963795	      0.04400426	      0.00963795	      0.00963795	      0.00963795	      0.04852541	      0.00963795	      0.05408462	      0.00963795	      0.02983134	      0.00963795	      0.00963795	      0.07447569	      0.00963795	      0.00963795	      0.06542846	      0.00963795	      0.21046956	      0.00963795	      0.04792752	      0.00963795	      0.08264289	      0.00963795	      0.06624039	      0.00963795	      0.03919870	      0.00963795	      0.11296370	      0.00963795	      0.11113973	      0.00963795	      0.10983232	      0.00963795	      0.00963795	      0.11278359	      0.00963795	      0.00963795	      0.12519278	      0.00963795	      0.00963795	      0.00963795	      0.08966597	      0.00963795	      0.00963795	      0.06926047	      0.00963795	      0.07820287	      0.00963795	      0.04540718	      0.00963795	      0.05137187	      0.00963795	      0.07010492	      0.00963795	      0.05686873	      0.00963795	      0.00963795	      0.00963795	      0.00963795	      0.00963795	      0.00963795	      0.00963795	      0.00963795	      0.00963795	      0.03799059	      0.00963795	      0.00963795	      0.00963795	      0.04851445	      0.00963795	      0.05407714	      0.00963795	      0.02336676	      0.00963795	      0.00963795	      0.06467834	      0.00963795	      0.00963795	      0.06548393	      0.00963795	      0.21098210	      0.00963795	      0.04790114	      0.00963795	      0.09710453	      0.00963795	      0.06630390	      0.00963795	      0.03919687	      0.00963795	      0.07970098	      0.00963795	      0.07867799	      0.00963795	      0.08035411
